{
  "accessors": [
    {
      "bufferView": 2,
      "componentType": 5126,
      "count": 65532,
      "max": [
        3.812415838241577,
        9.835532188415527,
        3.810494899749756
      ],
      "min": [
        -3.8123269081115723,
        -0.46672123670578003,
        -3.8156962394714355
      ],
      "type": "VEC3"
    },
    {
      "bufferView": 2,
      "byteOffset": 786384,
      "componentType": 5126,
      "count": 65532,
      "max": [
        1.0,
        1.0,
        1.0
      ],
      "min": [
        -1.0,
        -1.0,
        -1.0
      ],
      "type": "VEC3"
    },
    {
      "bufferView": 1,
      "componentType": 5126,
      "count": 65532,
      "max": [
        1.0000001192092896,
        1.0000001192092896
      ],
      "min": [
        0.0,
        0.0
      ],
      "type": "VEC2"
    },
    {
      "bufferView": 0,
      "componentType": 5125,
      "count": 70884,
      "type": "SCALAR"
    },
    {
      "bufferView": 2,
      "byteOffset": 1572768,
      "componentType": 5126,
      "count": 65532,
      "max": [
        3.812709331512451,
        9.835532188415527,
        3.8107516765594482
      ],
      "min": [
        -3.8123269081115723,
        -0.36574587225914,
        -3.8156962394714355
      ],
      "type": "VEC3"
    },
    {
      "bufferView": 2,
      "byteOffset": 2359152,
      "componentType": 5126,
      "count": 65532,
      "max": [
        0.9999997019767761,
        1.0,
        1.0
      ],
      "min": [
        -1.0,
        -0.8819419145584106,
        -1.0
      ],
      "type": "VEC3"
    },
    {
      "bufferView": 1,
      "byteOffset": 524256,
      "componentType": 5126,
      "count": 65532,
      "max": [
        0.9751520156860352,
        0.9186471700668335
      ],
      "min": [
        0.03980294615030289,
        0.36173805594444275
      ],
      "type": "VEC2"
    },
    {
      "bufferView": 0,
      "byteOffset": 283536,
      "componentType": 5125,
      "count": 65532,
      "type": "SCALAR"
    },
    {
      "bufferView": 2,
      "byteOffset": 3145536,
      "componentType": 5126,
      "count": 65532,
      "max": [
        3.8134894371032715,
        9.835532188415527,
        3.8129143714904785
      ],
      "min": [
        -3.8123269081115723,
        -0.4663342535495758,
        -3.8110599517822266
      ],
      "type": "VEC3"
    },
    {
      "bufferView": 2,
      "byteOffset": 3931920,
      "componentType": 5126,
      "count": 65532,
      "max": [
        1.0,
        0.9999680519104004,
        1.0
      ],
      "min": [
        -0.9998233318328857,
        -1.0,
        -0.9999998211860657
      ],
      "type": "VEC3"
    },
    {
      "bufferView": 1,
      "byteOffset": 1048512,
      "componentType": 5126,
      "count": 65532,
      "max": [
        0.9777442216873169,
        0.9217619895935059
      ],
      "min": [
        0.022395363077521324,
        0.12053538113832474
      ],
      "type": "VEC2"
    },
    {
      "bufferView": 0,
      "byteOffset": 545664,
      "componentType": 5125,
      "count": 65532,
      "type": "SCALAR"
    },
    {
      "bufferView": 2,
      "byteOffset": 4718304,
      "componentType": 5126,
      "count": 65532,
      "max": [
        3.8134894371032715,
        9.835532188415527,
        3.8129143714904785
      ],
      "min": [
        -3.8071200847625732,
        -0.46672123670578003,
        -3.712014675140381
      ],
      "type": "VEC3"
    },
    {
      "bufferView": 2,
      "byteOffset": 5504688,
      "componentType": 5126,
      "count": 65532,
      "max": [
        1.0,
        1.0,
        1.0
      ],
      "min": [
        -0.999556839466095,
        -1.0,
        -0.8107866644859314
      ],
      "type": "VEC3"
    },
    {
      "bufferView": 1,
      "byteOffset": 1572768,
      "componentType": 5126,
      "count": 65532,
      "max": [
        0.9751733541488647,
        0.9186471700668335
      ],
      "min": [
        0.48974567651748657,
        0.12317245453596115
      ],
      "type": "VEC2"
    },
    {
      "bufferView": 0,
      "byteOffset": 807792,
      "componentType": 5125,
      "count": 65532,
      "type": "SCALAR"
    },
    {
      "bufferView": 2,
      "byteOffset": 6291072,
      "componentType": 5126,
      "count": 7752,
      "max": [
        -3.7827935218811035,
        9.662174224853516,
        3.702296257019043
      ],
      "min": [
        -3.810887575149536,
        -0.2323502153158188,
        1.4025541543960571
      ],
      "type": "VEC3"
    },
    {
      "bufferView": 2,
      "byteOffset": 6384096,
      "componentType": 5126,
      "count": 7752,
      "max": [
        0.865420401096344,
        0.5873489379882813,
        0.7487872838973999
      ],
      "min": [
        -1.0,
        -0.5077470541000366,
        -0.5128709673881531
      ],
      "type": "VEC3"
    },
    {
      "bufferView": 1,
      "byteOffset": 2097024,
      "componentType": 5126,
      "count": 7752,
      "max": [
        0.49711570143699646,
        0.677081286907196
      ],
      "min": [
        0.42511022090911865,
        0.36616793274879456
      ],
      "type": "VEC2"
    },
    {
      "bufferView": 0,
      "byteOffset": 1069920,
      "componentType": 5125,
      "count": 7752,
      "type": "SCALAR"
    },
    {
      "bufferView": 2,
      "byteOffset": 6477120,
      "componentType": 5126,
      "count": 65534,
      "max": [
        3.812509298324585,
        8.953673362731934,
        3.810494899749756
      ],
      "min": [
        -3.8123269081115723,
        -0.46672123670578003,
        -3.8156962394714355
      ],
      "type": "VEC3"
    },
    {
      "bufferView": 2,
      "byteOffset": 7263528,
      "componentType": 5126,
      "count": 65534,
      "max": [
        1.0,
        1.0,
        1.0
      ],
      "min": [
        -1.0,
        -1.0,
        -1.0
      ],
      "type": "VEC3"
    },
    {
      "bufferView": 1,
      "byteOffset": 2159040,
      "componentType": 5126,
      "count": 65534,
      "max": [
        1.0000001192092896,
        1.0000001192092896
      ],
      "min": [
        0.0,
        0.0
      ],
      "type": "VEC2"
    },
    {
      "bufferView": 0,
      "byteOffset": 1100928,
      "componentType": 5125,
      "count": 68220,
      "type": "SCALAR"
    },
    {
      "bufferView": 2,
      "byteOffset": 8049936,
      "componentType": 5126,
      "count": 65532,
      "max": [
        3.8128159046173096,
        7.203095436096191,
        3.8129143714904785
      ],
      "min": [
        -3.8123269081115723,
        -0.466359406709671,
        -3.8156962394714355
      ],
      "type": "VEC3"
    },
    {
      "bufferView": 2,
      "byteOffset": 8836320,
      "componentType": 5126,
      "count": 65532,
      "max": [
        1.0,
        0.9562621116638184,
        1.0
      ],
      "min": [
        -1.0,
        -1.0,
        -1.0
      ],
      "type": "VEC3"
    },
    {
      "bufferView": 1,
      "byteOffset": 2683312,
      "componentType": 5126,
      "count": 65532,
      "max": [
        0.9777442216873169,
        0.6001448631286621
      ],
      "min": [
        0.022395363077521324,
        0.12053538113832474
      ],
      "type": "VEC2"
    },
    {
      "bufferView": 0,
      "byteOffset": 1373808,
      "componentType": 5125,
      "count": 65532,
      "type": "SCALAR"
    },
    {
      "bufferView": 2,
      "byteOffset": 9622704,
      "componentType": 5126,
      "count": 26796,
      "max": [
        3.8128159046173096,
        7.029789924621582,
        3.8129143714904785
      ],
      "min": [
        -3.7091476917266846,
        -0.46672123670578003,
        -3.7038042545318604
      ],
      "type": "VEC3"
    },
    {
      "bufferView": 2,
      "byteOffset": 9944256,
      "componentType": 5126,
      "count": 26796,
      "max": [
        1.0,
        0.8966367840766907,
        0.9999998211860657
      ],
      "min": [
        -0.8492658734321594,
        -1.0,
        -0.7611002922058105
      ],
      "type": "VEC3"
    },
    {
      "bufferView": 1,
      "byteOffset": 3207568,
      "componentType": 5126,
      "count": 26796,
      "max": [
        0.9744911193847656,
        0.5943211913108826
      ],
      "min": [
        0.5013965964317322,
        0.12317245453596115
      ],
      "type": "VEC2"
    },
    {
      "bufferView": 0,
      "byteOffset": 1635936,
      "componentType": 5125,
      "count": 26796,
      "type": "SCALAR"
    },
    {
      "bufferView": 2,
      "byteOffset": 10265808,
      "componentType": 5126,
      "count": 65534,
      "max": [
        3.8134894371032715,
        9.835532188415527,
        3.8125624656677246
      ],
      "min": [
        -3.8115384578704834,
        2.8516340255737305,
        -3.8120250701904297
      ],
      "type": "VEC3"
    },
    {
      "bufferView": 2,
      "byteOffset": 11052216,
      "componentType": 5126,
      "count": 65534,
      "max": [
        1.0,
        1.0,
        1.0
      ],
      "min": [
        -1.0,
        -1.0,
        -1.0
      ],
      "type": "VEC3"
    },
    {
      "bufferView": 1,
      "byteOffset": 3421936,
      "componentType": 5126,
      "count": 65534,
      "max": [
        1.0000001192092896,
        1.0000001192092896
      ],
      "min": [
        0.0,
        0.0
      ],
      "type": "VEC2"
    },
    {
      "bufferView": 0,
      "byteOffset": 1743120,
      "componentType": 5125,
      "count": 68184,
      "type": "SCALAR"
    },
    {
      "bufferView": 2,
      "byteOffset": 11838624,
      "componentType": 5126,
      "count": 46500,
      "max": [
        2.6707985401153564,
        9.835396766662598,
        3.8120627403259277
      ],
      "min": [
        -3.811673879623413,
        2.8525168895721436,
        -3.8132078647613525
      ],
      "type": "VEC3"
    },
    {
      "bufferView": 2,
      "byteOffset": 12396624,
      "componentType": 5126,
      "count": 46500,
      "max": [
        0.9997988343238831,
        0.9999680519104004,
        1.0
      ],
      "min": [
        -1.0,
        -0.9627590775489807,
        -1.0
      ],
      "type": "VEC3"
    },
    {
      "bufferView": 1,
      "byteOffset": 3946208,
      "componentType": 5126,
      "count": 46500,
      "max": [
        0.6482933759689331,
        0.9217618107795715
      ],
      "min": [
        0.05796487629413605,
        0.46267014741897583
      ],
      "type": "VEC2"
    },
    {
      "bufferView": 0,
      "byteOffset": 2015856,
      "componentType": 5125,
      "count": 46500,
      "type": "SCALAR"
    }
  ],
  "asset": {
    "extras": {
      "author": "Felipe Carim (Capygon) (https://sketchfab.com/BokuNC)",
      "license": "CC-BY-4.0 (http://creativecommons.org/licenses/by/4.0/)",
      "source": "https://sketchfab.com/3d-models/deck-box-vincent-van-gogh-starry-night-1889-77f5214c9eca4d76a9752f7f8c9ec7dc",
      "title": "Deck Box - Vincent Van Gogh: Starry Night 1889"
    },
    "generator": "Sketchfab-12.67.0",
    "version": "2.0"
  },
  "bufferViews": [
    {
      "buffer": 0,
      "byteLength": 2201856,
      "name": "floatBufferViews",
      "target": 34963
    },
    {
      "buffer": 0,
      "byteLength": 4318208,
      "byteOffset": 2201856,
      "byteStride": 8,
      "name": "floatBufferViews",
      "target": 34962
    },
    {
      "buffer": 0,
      "byteLength": 12954624,
      "byteOffset": 6520064,
      "byteStride": 12,
      "name": "floatBufferViews",
      "target": 34962
    }
  ],
  "buffers": [
    {
      "byteLength": 19474688,
      "uri": "scene.bin"
    }
  ],
  "images": [
    {
      "uri": "textures/Starry_Night_baseColor.png"
    }
  ],
  "materials": [
    {
      "doubleSided": true,
      "name": "Starry_Night",
      "pbrMetallicRoughness": {
        "baseColorTexture": {
          "index": 0
        },
        "metallicFactor": 0.5,
        "roughnessFactor": 0.8
      }
    }
  ],
  "meshes": [
    {
      "name": "Object_0",
      "primitives": [
        {
          "attributes": {
            "NORMAL": 1,
            "POSITION": 0,
            "TEXCOORD_0": 2
          },
          "indices": 3,
          "material": 0,
          "mode": 4
        }
      ]
    },
    {
      "name": "Object_1",
      "primitives": [
        {
          "attributes": {
            "NORMAL": 5,
            "POSITION": 4,
            "TEXCOORD_0": 6
          },
          "indices": 7,
          "material": 0,
          "mode": 4
        }
      ]
    },
    {
      "name": "Object_2",
      "primitives": [
        {
          "attributes": {
            "NORMAL": 9,
            "POSITION": 8,
            "TEXCOORD_0": 10
          },
          "indices": 11,
          "material": 0,
          "mode": 4
        }
      ]
    },
    {
      "name": "Object_3",
      "primitives": [
        {
          "attributes": {
            "NORMAL": 13,
            "POSITION": 12,
            "TEXCOORD_0": 14
          },
          "indices": 15,
          "material": 0,
          "mode": 4
        }
      ]
    },
    {
      "name": "Object_4",
      "primitives": [
        {
          "attributes": {
            "NORMAL": 17,
            "POSITION": 16,
            "TEXCOORD_0": 18
          },
          "indices": 19,
          "material": 0,
          "mode": 4
        }
      ]
    },
    {
      "name": "Object_5",
      "primitives": [
        {
          "attributes": {
            "NORMAL": 21,
            "POSITION": 20,
            "TEXCOORD_0": 22
          },
          "indices": 23,
          "material": 0,
          "mode": 4
        }
      ]
    },
    {
      "name": "Object_6",
      "primitives": [
        {
          "attributes": {
            "NORMAL": 25,
            "POSITION": 24,
            "TEXCOORD_0": 26
          },
          "indices": 27,
          "material": 0,
          "mode": 4
        }
      ]
    },
    {
      "name": "Object_7",
      "primitives": [
        {
          "attributes": {
            "NORMAL": 29,
            "POSITION": 28,
            "TEXCOORD_0": 30
          },
          "indices": 31,
          "material": 0,
          "mode": 4
        }
      ]
    },
    {
      "name": "Object_8",
      "primitives": [
        {
          "attributes": {
            "NORMAL": 33,
            "POSITION": 32,
            "TEXCOORD_0": 34
          },
          "indices": 35,
          "material": 0,
          "mode": 4
        }
      ]
    },
    {
      "name": "Object_9",
      "primitives": [
        {
          "attributes": {
            "NORMAL": 37,
            "POSITION": 36,
            "TEXCOORD_0": 38
          },
          "indices": 39,
          "material": 0,
          "mode": 4
        }
      ]
    }
  ],
  "nodes": [
    {
      "children": [
        1
      ],
      "matrix": [
        1.0,
        0.0,
        0.0,
        0.0,
        0.0,
        2.220446049250313e-16,
        -1.0,
        0.0,
        0.0,
        1.0,
        2.220446049250313e-16,
        0.0,
        0.0,
        0.0,
        0.0,
        1.0
      ],
      "name": "Sketchfab_model"
    },
    {
      "children": [
        2
      ],
      "name": "root"
    },
    {
      "children": [
        3,
        9,
        13
      ],
      "matrix": [
        1.0,
        0.0,
        0.0,
        0.0,
        0.0,
        2.220446049250313e-16,
        1.0,
        0.0,
        0.0,
        -1.0,
        2.220446049250313e-16,
        0.0,
        0.0,
        0.0,
        0.0,
        1.0
      ],
      "name": "GLTF_SceneRootNode"
    },
    {
      "children": [
        4,
        5,
        6,
        7,
        8
      ],
      "name": "Starry Night Deck Box_0"
    },
    {
      "mesh": 0,
      "name": "Object_4"
    },
    {
      "mesh": 1,
      "name": "Object_5"
    },
    {
      "mesh": 2,
      "name": "Object_6"
    },
    {
      "mesh": 3,
      "name": "Object_7"
    },
    {
      "mesh": 4,
      "name": "Object_8"
    },
    {
      "children": [
        10,
        11,
        12
      ],
      "matrix": [
        1.0,
        0.0,
        0.0,
        0.0,
        0.0,
        1.0,
        0.0,
        0.0,
        0.0,
        0.0,
        1.0,
        0.0,
        8.977595329284668,
        0.0,
        0.0,
        1.0
      ],
      "name": "Starry Night Deck Box Bottom_1"
    },
    {
      "mesh": 5,
      "name": "Object_10"
    },
    {
      "mesh": 6,
      "name": "Object_11"
    },
    {
      "mesh": 7,
      "name": "Object_12"
    },
    {
      "children": [
        14,
        15
      ],
      "matrix": [
        1.0,
        0.0,
        0.0,
        0.0,
        0.0,
        -0.9999999999999467,
        -3.258413698858844e-07,
        0.0,
        0.0,
        3.258413698858844e-07,
        -0.9999999999999467,
        0.0,
        17.0700740814209,
        9.371262550354004,
        0.0,
        1.0
      ],
      "name": "Starry Night Deck Box Top_2"
    },
    {
      "mesh": 8,
      "name": "Object_14"
    },
    {
      "mesh": 9,
      "name": "Object_15"
    }
  ],
  "samplers": [
    {
      "magFilter": 9729,
      "minFilter": 9987,
      "wrapS": 10497,
      "wrapT": 10497
    }
  ],
  "scene": 0,
  "scenes": [
    {
      "name": "Sketchfab_Scene",
      "nodes": [
        0
      ]
    }
  ],
  "textures": [
    {
      "sampler": 0,
      "source": 0
    }
  ]
}
